# xmcd CD database file
#
# Track frame offsets:
#	183
#	15310
#	32138
#	48925
#	65223
#	83163
#	98338
#	111385
#	123173
#	140113
#	153503
#	168363
#
# Disc length: 2566 seconds
#
# Revision: 1
# Processed by: cddbd v1.5.2PL0 Copyright (c) Steve Scherf et al.
# Submitted via: jetAudio 7
#
DISCID=980a040c
DTITLE=John Brack - Country Highlights
DYEAR=1989
DGENRE=Country
TTITLE0=Honky Tonk Amnesia
TTITLE1=Help Me Make It Through The Night
TTITLE2=Some Broken Hearts Never Mend
TTITLE3=Walking The Floor Over You
TTITLE4=Together Again
TTITLE5=San Antonio Rose
TTITLE6=Heartaches By The Number
TTITLE7=Louisiana Saturday Night
TTITLE8=He'll Have To Go
TTITLE9=Home Is Where The Love Is
TTITLE10=Waltz Across Texas
TTITLE11=C'est La Vie
EXTD=YEAR: 1989 ID3G: 2
EXTT0=
EXTT1=
EXTT2=
EXTT3=
EXTT4=
EXTT5=
EXTT6=
EXTT7=
EXTT8=
EXTT9=
EXTT10=
EXTT11=
PLAYORDER=
